# xmcd CD database file
#
# Track frame offsets:
#	150
#	11937
#	25104
#	37731
#	49095
#	60405
#	70439
#	83699
#	109456
#	129698
#	144692
#	155732
#	171329
#	184793
#	195938
#	206562
#	216869
#	228629
#	249483
#	266788
#
# Disc length: 3753 seconds
#
# Revision: 2
# Processed by: cddbd v1.5.2PL0 Copyright (c) Steve Scherf et al.
# Submitted via: CDex 1.51
#
DISCID=280ea714
DTITLE=Various Artist - Simply Soul - Knock On Wood
DYEAR=1999
DGENRE=Soul
TTITLE0=Robert Parker - Barefootin'
TTITLE1=Percy Sledge - When A Man Loves A Woman
TTITLE2=Jerry Butler - For Your Precious Love
TTITLE3=Brook Benton - So Many Ways
TTITLE4=The Drifters - Save The Last Dance For Me
TTITLE5=Gladys Knight and The Pips - Operator
TTITLE6=Sam and Dave - Soul Man
TTITLE7=Billy Paul - Me and Mrs. Jones (Live)
TTITLE8=Harold Melvin and The Bluenotes - If You Don't Know Me By Now (Live)
TTITLE9=The Detroit Emeralds - Feel The Need In Me
TTITLE10=Rufus Thomas - Walking The Dog
TTITLE11=Al Wilson - Show And Tell
TTITLE12=Jerry Butler - I Stand Accused
TTITLE13=Brook Benton - It's Just A Matter Of Time
TTITLE14=James Brown - I Got You (I Feel Good) (Live)
TTITLE15=The Drifters - There Goes My Baby
TTITLE16=Sam and Dave - Soul Sister, Brown Sugar
TTITLE17=The Whispers - You've Made Me So Very Happy
TTITLE18=Percy Sledge - Try A Little Tenderness
TTITLE19=Eddie Floyd - Knock On Wood
EXTD=YEAR: 1999
EXTT0=
EXTT1=
EXTT2=
EXTT3=
EXTT4=
EXTT5=
EXTT6=
EXTT7=
EXTT8=
EXTT9=
EXTT10=
EXTT11=
EXTT12=
EXTT13=
EXTT14=
EXTT15=
EXTT16=
EXTT17=
EXTT18=
EXTT19=
PLAYORDER=
